<?xml version="1.0" standalone="no"?><!DOCTYPE svg PUBLIC "-//W3C//DTD SVG 1.1//EN" "http://www.w3.org/Graphics/SVG/1.1/DTD/svg11.dtd"><svg t="1722945330563" class="icon" viewBox="0 0 1024 1024" version="1.1" xmlns="http://www.w3.org/2000/svg" p-id="30271" xmlns:xlink="http://www.w3.org/1999/xlink" width="200" height="200"><path d="M999.136 386.56c-13.568-63.552-40.832-122.56-79.424-177.088l-20.48-27.2C819.872 86.912 708.512 27.84 585.952 7.424 556.384 2.88 524.64-1.664 492.832 0.576c547.2 267.904 301.952 649.408 301.952 649.408L476.96 325.248l120.32-131.648-84.032-77.184-65.792 59.008-122.624-2.24-249.728 254.272 152.064 138.496 93.12-90.88 324.672 315.648C372.512 965.568 120.48 668.16 120.48 668.16L22.816 754.368l74.88 88.576-13.568 18.176c-34.048-4.544-49.92 11.328-49.92 11.328-86.336 84.032 18.112 129.472 18.112 129.472 99.904 22.656 95.36-81.792 95.36-81.792l18.176-24.96c379.2 204.352 601.664 20.48 601.664 20.48l108.992 102.144 147.584-147.584c-13.568-15.872-29.44-31.808-43.136-47.68-11.328-11.392-20.416-22.72-31.744-34.048-11.392-11.392-24.96-18.176-13.632-34.112a498.432 498.432 0 0 0 63.552-367.808z" p-id="30272" fill="#50645a"></path></svg>