<?xml version="1.0" standalone="no"?><!DOCTYPE svg PUBLIC "-//W3C//DTD SVG 1.1//EN" "http://www.w3.org/Graphics/SVG/1.1/DTD/svg11.dtd"><svg t="1722945240109" class="icon" viewBox="0 0 1753 1024" version="1.1" xmlns="http://www.w3.org/2000/svg" p-id="25345" xmlns:xlink="http://www.w3.org/1999/xlink" width="342.3828125" height="200"><path d="M0 447.637865q76.341948-132.482643 152.762196-264.808686c13.859-23.881327 28.187796-27.718 52.460621-14.328797A366.206454 366.206454 0 0 1 239.283071 187.918642c35.626243 25.055819 74.932558 30.615079 117.449151 25.447316a336.687567 336.687567 0 0 1 81.822909 0 24.820921 24.820921 0 0 1 23.48983 26.543508 25.134118 25.134118 0 0 1-23.48983 25.447316 134.988224 134.988224 0 0 1-18.713565 1.252791c-25.603915 0-51.286129 0-76.890044 1.096192a310.535556 310.535556 0 0 1-39.149717 1.174492C268.332161 266.218076 237.403884 250.558189 208.119896 231.609726c-11.744915-7.829943-17.93057-6.733751-25.134118 5.950757Q126.453586 336.687567 68.433705 435.658052c-6.029056 10.413825-4.776265 15.659887 5.872458 21.375745 12.684508 6.498853 24.820921 14.015599 36.800734 21.688943a160.983637 160.983637 0 0 1 63.814039 76.028751 214.148952 214.148952 0 0 0 94.585716 106.487231L493.286435 790.11959c20.984248 12.058113 25.369017 10.805322 37.818627-10.335525 2.662181-4.463068 5.167763-8.926135 7.829943-13.310904 7.829943-12.919407 4.384768-22.706836-8.22144-29.910384-15.659887-8.769537-30.693378-17.460774-45.961768-26.386909-21.767243-12.684508-27.874599-26.778406-18.635265-42.203395s24.116226-16.442881 44.865575-4.541367c28.187796 16.129683 56.297293 32.415966 84.40679 48.623948 23.48983 13.467503 28.892491 12.136412 42.203395-10.492124 1.722588-2.975378 3.445175-5.872458 5.089464-8.847836 9.474232-17.147576 7.829943-23.48983-8.691238-33.277259-29.440587-17.382474-59.194372-34.295152-88.791558-51.364429A92.70653 92.70653 0 0 1 532.436152 599.695366a25.290717 25.290717 0 0 1-7.829943-33.590457 24.820921 24.820921 0 0 1 33.747056-10.883621c15.659887 7.829943 31.319774 16.834378 46.353265 25.603915 26.700107 15.19009 53.243615 30.693378 79.943722 46.040067 12.606209 7.203548 22.15874 4.776265 30.223582-7.829943 21.845542-34.216853 21.454045-37.035632-13.545802-57.236887-33.19896-19.574859-67.102615-38.75822-100.379875-58.176479-19.33996-11.11852-25.290717-25.995412-16.834378-40.16761s24.116226-17.539073 43.221288-6.655452c35.626243 20.357853 71.017587 41.107203 106.722128 61.230157 17.225876 9.787429 23.020034 7.829943 33.19896-8.926135 20.122955-33.042361 19.731457-34.999847-13.937299-54.809604Q657.24545 399.327114 560.937146 343.421318c-3.914972-2.270684-7.829943-4.384768-11.744915-6.89035-14.015599-9.317633-18.478666-23.48983-11.588316-36.644135a27.248203 27.248203 0 0 1 37.035632-10.178927c19.888056 9.004435 22.941734 7.829943 31.789571-12.44961 3.523475-7.829943 0.939593-10.335525-6.733752-10.335525h-39.149717c-19.809757-0.861294-30.928276-10.805322-31.319773-27.013305s10.022328-25.760514 29.205688-26.856706c22.706836-1.33109 45.570271-1.252791 68.355406-0.704695a25.603915 25.603915 0 0 0 25.838814-14.955191c32.337666-56.923689 65.536626-113.299281 98.109191-170.144671A54.809604 54.809604 0 0 1 780.097263 0h10.257225c42.438293 20.984248 82.762502 45.72687 123.24331 69.999694 18.948463 11.353418 22.393638 27.561401 12.136412 46.979661-7.829943 15.659887-16.990977 30.928276-26.465209 45.805169s-23.48983 18.243768-36.722434 10.883621-16.59948-21.923842-9.552531-37.113932c14.798593-32.024469 14.798593-32.024469-16.286283-49.720141l-4.463067-2.505581c-39.149717-22.628536-39.149717-22.628536-61.778254 16.129683-40.715706 70.469491-81.196513 140.938981-122.382015 211.408472-6.733751 11.431717-6.107356 17.617373 6.107355 23.489831 17.225876 8.769537 33.981954 18.635265 50.346537 28.97079 9.865729 6.263955 14.720294 3.445175 19.966355-5.872457q32.024469-56.375593 65.06683-112.281389c9.787429-16.521181 29.518887-20.905949 41.890197-9.552531s11.353418 23.959627 3.758373 37.270531c-20.827649 36.01774-41.107203 72.270378-62.639547 107.740021-7.829943 12.684508-6.96865 19.261661 7.046949 26.073712 25.055819 12.058113 47.371158 27.169904 53.713412 57.628383a65.380028 65.380028 0 0 1-5.480961 44.708977c-10.100627 19.653158-19.261661 40.245909-37.662027 54.183209a17.460774 17.460774 0 0 0-6.029057 15.11179 109.619208 109.619208 0 0 1-74.462762 104.999542 14.407096 14.407096 0 0 0-9.787429 10.570423 183.377275 183.377275 0 0 1-23.48983 45.413672 67.494112 67.494112 0 0 1-69.373299 33.903655 14.485395 14.485395 0 0 0-17.225875 9.395932 421.642453 421.642453 0 0 1-21.375746 36.879034 65.06683 65.06683 0 0 1-52.695519 30.536779 26.386909 26.386909 0 0 0-23.48983 15.659887q-38.053525 66.711118-76.890045 133.109038c-15.659887 26.30861-31.319774 30.301881-58.09818 14.955192Q307.638477 986.57287 258.388133 957.915278c-22.863435-13.389203-27.6397-30.223582-14.563695-53.008717 25.134118-44.004282 50.346536-87.930265 76.341948-131.46475 7.046949-11.823215 6.655452-18.322068-6.342254-25.212418C289.707906 735.466585 266.218076 721.137789 242.728246 707.513687a257.291941 257.291941 0 0 1-113.377581-123.948004A147.281236 147.281236 0 0 0 62.639547 511.295305c-22.002141-12.293011-47.762655-20.044655-62.639547-43.221288z m449.517052 384.68512a9.865729 9.865729 0 0 0-6.029057-8.769536l-59.194372-34.138554c-7.360147-4.306469-11.588316-0.704695-15.111791 5.480961-21.610644 37.42713-43.142988 74.932558-65.06683 112.203089-5.402661 9.161034-3.053678 14.093898 5.715859 18.870163 18.00887 9.787429 35.861141 19.888056 53.243615 30.693379 8.926135 5.48096 13.624102 4.071571 18.713565-5.011164 20.671051-36.722435 41.968497-73.053372 63.031044-109.619208 1.957486-3.288576 3.366876-6.96865 4.697967-9.70913zM1335.788347 801.551308l-127.862976 127.706377c-12.919407 12.919407-25.603915 25.995412-39.149717 38.601621a84.171892 84.171892 0 0 1-135.066524-20.044655 17.225876 17.225876 0 0 0-20.671051-11.19682c-62.639547 7.203548-105.625937-36.722435-97.169598-99.361981a13.937299 13.937299 0 0 0-8.847836-16.990978c-48.46735-26.543508-61.621655-77.594739-31.867869-124.809298 5.637559-9.004435 3.366876-11.901514-4.071571-17.069276-46.97966-33.355559-52.61722-91.532039-12.058113-132.482643q51.051231-51.677627 102.885457-102.650558c16.286282-15.659887 38.288423-11.510017 45.413672 8.29974 4.776265 13.389203-1.722588 23.098333-10.570424 31.946169l-92.70653 93.019728a129.585564 129.585564 0 0 0-10.570424 11.196819 31.319774 31.319774 0 0 0 1.565989 40.715706 30.38018 30.38018 0 0 0 39.149717 4.541367 96.073406 96.073406 0 0 0 15.659887-13.310904c37.975226-37.740327 75.793852-75.715553 113.769078-113.45588 16.051384-15.659887 31.319774-17.695672 43.064688-5.480961s9.474232 28.187796-5.794158 43.377887q-83.858694 84.093592-168.030585 167.952286a146.498241 146.498241 0 0 0-11.823215 12.371311 31.86787 31.86787 0 0 0 1.487689 40.794005 30.615079 30.615079 0 0 0 39.149717 4.541367 101.162869 101.162869 0 0 0 16.756079-14.485395q81.744609-81.353112 163.33262-163.019422a103.120355 103.120355 0 0 1 12.44961-11.666616 26.152011 26.152011 0 0 1 37.975226 34.843249 74.932558 74.932558 0 0 1-12.371311 14.015598q-96.073406 96.151705-192.30341 192.146812a134.675027 134.675027 0 0 0-11.744915 12.37131 32.494265 32.494265 0 0 0 0 39.149717 31.319774 31.319774 0 0 0 39.149717 6.342255 95.995106 95.995106 0 0 0 18.322067-15.111791q94.272519-94.272519 189.484631-189.171433a145.636948 145.636948 0 0 1 12.293011-11.823215 26.152011 26.152011 0 0 1 35.704542 1.565989 25.917113 25.917113 0 0 1 2.192384 34.451751 96.8564 96.8564 0 0 1-11.588316 12.527909l-164.428812 164.428812a134.675027 134.675027 0 0 0-11.744915 12.371311 31.78957 31.78957 0 0 0 1.565989 40.794005 30.771678 30.771678 0 0 0 39.149717 4.541367 100.693072 100.693072 0 0 0 15.659887-13.389203l198.410766-198.097569a49.015446 49.015446 0 0 0 13.545802-17.304174c4.463068-12.684508 5.011164-21.845542-9.004435-31.319774a122.147117 122.147117 0 0 1-48.623949-133.970332 126.453586 126.453586 0 0 1 110.402203-93.098027c20.74935-1.879186 35.078147 7.829943 36.487536 24.586022s-9.004435 26.152011-30.536779 28.735892c-34.686649 4.228169-62.013152 28.814192-66.163022 59.50757a72.035479 72.035479 0 0 0 46.97966 80.100322c23.48983 9.63083 27.874599 18.00887 21.688943 42.046796-7.360147 28.657593-15.659887 57.158587-22.628536 86.129377a65.301728 65.301728 0 0 0 28.814192 72.583576c9.395932 5.715859 14.955192 5.794158 18.243768-6.577153 31.319774-117.449151 65.771525-234.898302 92.628231-353.208747 12.606209-55.749197 35.861141-100.536473 77.281541-138.276801 25.682214-23.48983 49.172045-49.172045 74.149564-73.36657 7.829943-7.829943 7.829943-12.841107 0-20.74935q-80.178621-79.239027-159.652546-159.417648c-8.612938-8.847836-13.859-7.829943-22.002141 0.469797-30.615079 31.319774-62.639547 61.621655-92.863129 93.254626a179.618902 179.618902 0 0 1-107.661722 54.339807 197.784371 197.784371 0 0 0-112.751185 56.140695c-33.433858 32.729163-66.241321 65.928124-99.361982 98.892185a27.091604 27.091604 0 0 1-34.295152 5.715859 24.194525 24.194525 0 0 1-12.52791-27.404802 20.201254 20.201254 0 0 1 5.794158-12.136413c42.82979-41.811898 82.057807-87.22557 128.567671-125.279094a232.392721 232.392721 0 0 1 116.666157-49.328644 130.838354 130.838354 0 0 0 78.299434-39.149717c35.93944-36.565836 72.426977-72.661875 108.836214-108.757914 22.706836-22.550237 43.925983-22.863435 66.867717 0q95.212112 94.429118 189.876127 189.64123c22.315339 22.550237 21.845542 44.082581-0.861293 66.946016q-56.062395 56.375593-112.437988 112.359688a108.131519 108.131519 0 0 0-32.259367 57.315186c-12.841107 68.903502-34.216853 135.61462-51.677626 203.578528-16.286282 63.344242-33.668757 126.453586-50.738033 189.562931-10.883621 40.324209-41.342101 54.809604-80.178621 39.149717a116.587857 116.587857 0 0 1-68.277107-76.341949c-1.644288-4.697966-2.583881-9.004435-4.776265-16.364581z" p-id="25346" fill="#50645a"></path></svg>