<?xml version="1.0" standalone="no"?><!DOCTYPE svg PUBLIC "-//W3C//DTD SVG 1.1//EN" "http://www.w3.org/Graphics/SVG/1.1/DTD/svg11.dtd"><svg t="1722944942134" class="icon" viewBox="0 0 1024 1024" version="1.1" xmlns="http://www.w3.org/2000/svg" p-id="13417" xmlns:xlink="http://www.w3.org/1999/xlink" width="200" height="200"><path d="M327.68 810.666667l324.266667-407.893334c73.386667 17.066667 151.893333-6.826667 201.386666-69.973333 42.666667-52.906667 52.906667-122.88 34.133334-182.613333l-87.04 109.226666-117.76-30.72L626.346667 119.466667 713.386667 10.24C648.533333 6.826667 583.68 32.426667 541.013333 85.333333c-49.493333 61.44-56.32 145.066667-22.186666 211.626667l-324.266667 407.893333c-49.493333-5.12-100.693333 15.36-133.12 58.026667C8.533333 829.44 18.773333 926.72 85.333333 977.92c66.56 52.906667 163.84 40.96 215.04-25.6 34.133333-40.96 42.666667-93.866667 27.306667-141.653333z m-116.053333 124.586666l-81.92-11.946666-30.72-76.8 51.2-64.853334 81.92 11.946667 30.72 76.8-51.2 64.853333z" p-id="13418" fill="#50645a"></path><path d="M701.44 597.333333l-54.613333-46.08-51.2 61.44-314.026667-267.946666-52.906667-90.453334-121.173333-75.093333L51.2 245.76l92.16 107.52 97.28 37.546667 314.026667 266.24-51.2 61.44 54.613333 46.08c25.6-13.653333 58.026667-11.946667 80.213333 6.826666 23.893333 20.48 30.72 51.2 20.48 78.506667l170.666667 145.066667c27.306667 23.893333 68.266667 20.48 92.16-6.826667l59.733333-69.973333c23.893333-27.306667 20.48-68.266667-6.826666-92.16L802.133333 682.666667c-25.6 13.653333-58.026667 11.946667-80.213333-6.826667-23.893333-20.48-30.72-52.906667-20.48-78.506667z" p-id="13419" fill="#50645a"></path></svg>