<?xml version="1.0" standalone="no"?><!DOCTYPE svg PUBLIC "-//W3C//DTD SVG 1.1//EN" "http://www.w3.org/Graphics/SVG/1.1/DTD/svg11.dtd"><svg t="1722944852479" class="icon" viewBox="0 0 1024 1024" version="1.1" xmlns="http://www.w3.org/2000/svg" p-id="10009" xmlns:xlink="http://www.w3.org/1999/xlink" width="200" height="200"><path d="M422.4 171.008c24.576-3.584 45.568 10.24 55.808 31.232C502.784 236.544 517.12 261.12 517.12 261.12c7.168 6.656 17.408 10.24 28.16 10.24h329.728c24.576 3.584 45.568 27.648 41.984 55.296v517.632c0 31.232-24.576 51.712-52.736 51.712H157.184c-14.336-0.512-50.688-7.168-50.688-65.536v-593.92c3.584-37.888 31.744-65.536 70.144-65.536h245.76z m89.6 463.36c-30.208 0-77.824 10.24-141.824 31.232-16.896 5.632-29.184 24.064-29.184 45.056v78.848h341.504v-78.848c0-20.992-11.776-39.424-29.184-45.056-63.488-20.992-111.104-31.232-141.312-31.232z m90.112-123.392H421.888v7.168c3.584 51.2 42.496 91.648 90.112 91.648 49.664 0 90.112-44.544 90.112-98.816z m-90.112-148.48c-9.216 0-17.92 1.024-27.136 4.096v65.024h-17.92V374.784l-6.144 3.584c-29.184 18.944-47.616 53.248-47.616 93.184h-17.92V491.52H629.76v-19.968h-17.92l-0.512-8.192c-2.56-38.912-23.552-71.68-53.76-88.576v57.344h-17.92V366.592l-6.656-2.048c-7.168-1.024-14.336-2.048-20.992-2.048z" fill="#50645a" p-id="10010"></path></svg>