<?xml version="1.0" standalone="no"?><!DOCTYPE svg PUBLIC "-//W3C//DTD SVG 1.1//EN" "http://www.w3.org/Graphics/SVG/1.1/DTD/svg11.dtd"><svg t="1724398951124" class="icon" viewBox="0 0 1024 1024" version="1.1" xmlns="http://www.w3.org/2000/svg" p-id="28566" xmlns:xlink="http://www.w3.org/1999/xlink" width="350" height="350"><path d="M1024 511.991606A512 512 0 1 1 511.991606 0a511.983212 511.983212 0 0 1 511.991606 511.991606z" fill="#FFDB7A" p-id="28567"></path><path d="M571.858546 268.973129a61.915108 61.915108 0 1 1-61.923502-61.906714 61.906714 61.906714 0 0 1 61.923502 61.906714zM644.081646 342.228707a17.627674 17.627674 0 0 0-1.863497 0.209854v-0.209854h-79.844971l-37.65607 23.22656 0.436495 0.067153L534.571817 528.830232l-24.603197 16.922567L485.373818 528.830232l9.40982-163.307812 0.470071-0.067153-37.672858-23.22656H378.491352v0.167883A27.272531 27.272531 0 0 0 352.553488 369.593573v198.747832h54.696155v-153.864415a7.739388 7.739388 0 1 1 15.470383 0v153.864415h178.54316v-153.864415a7.730994 7.730994 0 1 1 15.470382 0v153.864415h54.679367V369.593573a27.348078 27.348078 0 0 0-27.339683-27.364866z" fill="#FFFFFF" p-id="28568"></path><path d="M117.07294 770.589589h789.837331v10.543028H117.07294z" fill="#475059" p-id="28569"></path><path d="M336.369604 445.283449a61.906714 61.906714 0 1 1-61.906714-61.906713 61.906714 61.906714 0 0 1 61.906714 61.906713zM408.617887 518.547422h-75.891336l-53.756012 53.747619v143.371751a4.516042 4.516042 0 0 1-9.032085 0v-143.371751l-53.747619-53.747619h-73.188425v0.134306a27.306107 27.306107 0 0 0-25.92947 27.213772v198.756226h54.712944v-153.864416a7.739388 7.739388 0 0 1 15.478777 0v153.864416h178.526371v-153.864416a7.7226 7.7226 0 1 1 15.461989 0v153.864416h54.704549V545.8955a27.339684 27.339684 0 0 0-27.339683-27.348078z m-110.936831 186.013935a5.741585 5.741585 0 1 1 5.733191-5.733191 5.741585 5.741585 0 0 1-5.733191 5.741586z m0-36.128338a5.733191 5.733191 0 1 1 5.733191-5.724797 5.724797 5.724797 0 0 1-5.733191 5.724797z m0-36.119944a5.741585 5.741585 0 1 1 5.733191-5.733191 5.724797 5.724797 0 0 1-5.733191 5.733191z m0-36.119944a5.741585 5.741585 0 1 1 5.733191-5.733192 5.741585 5.741585 0 0 1-5.733191 5.733192z" fill="#ADEBF6" p-id="28570"></path><path d="M739.170358 534.118534v-4.667136h16.595197v4.67553l13.699221-5.985015 22.00941-9.594491H703.461726l22.009411 9.594491zM745.423986 507.190163a61.906714 61.906714 0 1 0-61.931896-61.906714 61.89832 61.89832 0 0 0 61.931896 61.906714z" fill="#E25D34" p-id="28571"></path><path d="M879.570588 518.547422H791.482581v38.403148l-22.009411-9.594492-13.699221-5.985015v4.675531h-16.595197v-4.675531l-13.699221 5.985015-22.00941 9.594492v-38.403148H613.971899v0.134306a27.306107 27.306107 0 0 0-25.937863 27.213772v198.756226h54.712943v-153.864416a7.7226 7.7226 0 1 1 15.461989 0v153.864416h178.534765v-153.864416a7.739388 7.739388 0 1 1 15.470383 0v153.864416h54.696155V545.8955a27.348078 27.348078 0 0 0-27.339683-27.348078z" fill="#E25D34" p-id="28572"></path></svg>