<?xml version="1.0" standalone="no"?><!DOCTYPE svg PUBLIC "-//W3C//DTD SVG 1.1//EN" "http://www.w3.org/Graphics/SVG/1.1/DTD/svg11.dtd"><svg t="1722944759507" class="icon" viewBox="0 0 1024 1024" version="1.1" xmlns="http://www.w3.org/2000/svg" p-id="7841" xmlns:xlink="http://www.w3.org/1999/xlink" width="200" height="200"><path d="M715.818667 576a12.8 12.8 0 0 1 12.8 12.8v41.557333c6.912 2.133333 13.525333 4.906667 19.797333 8.192l29.44-29.354666a12.8 12.8 0 0 1 18.048 0l33.621333 33.621333a12.8 12.8 0 0 1 0 18.090667l-29.354666 29.397333c3.285333 6.272 6.058667 12.885333 8.192 19.754667h41.557333a12.8 12.8 0 0 1 12.8 12.8v47.573333a12.8 12.8 0 0 1-12.8 12.8h-41.557333a121.173333 121.173333 0 0 1-8.192 19.797333l29.354666 29.44a12.8 12.8 0 0 1 0 18.048l-33.621333 33.621334a12.8 12.8 0 0 1-18.090667 0l-29.397333-29.354667a121.173333 121.173333 0 0 1-19.754667 8.192v41.557333a12.8 12.8 0 0 1-12.8 12.8h-47.573333a12.8 12.8 0 0 1-12.8-12.8v-41.557333a121.173333 121.173333 0 0 1-19.797333-8.192l-29.44 29.354667a12.8 12.8 0 0 1-18.048 0l-33.621334-33.621334a12.8 12.8 0 0 1 0-18.090666l29.354667-29.397334a121.173333 121.173333 0 0 1-8.192-19.754666h-41.557333a12.8 12.8 0 0 1-12.8-12.8v-47.573334a12.8 12.8 0 0 1 12.8-12.8h41.557333a121.173333 121.173333 0 0 1 8.192-19.797333l-29.354667-29.44a12.8 12.8 0 0 1 0-18.048l33.621334-33.621333a12.8 12.8 0 0 1 18.090666 0l29.397334 29.354666a121.173333 121.173333 0 0 1 19.754666-8.192V588.8a12.8 12.8 0 0 1 12.8-12.8h47.573334z m-104.234667-21.333333c13.013333 0 25.856 1.194667 38.314667 3.456l2.645333 0.554666a34.176 34.176 0 0 0-17.536 24.021334 32.768 32.768 0 0 0-0.554667 10.368v12.928l-5.973333-5.717334-6.997333-6.954666a34.218667 34.218667 0 0 0-48.298667 0.213333l-33.706667 34.005333a34.133333 34.133333 0 0 0 0 48.128l13.354667 13.397334h-18.645333a34.048 34.048 0 0 0-11.776 2.090666 34.048 34.048 0 0 0-22.101334 27.733334l-0.256 4.309333v46.933333a34.133333 34.133333 0 0 0 34.389334 34.176h18.389333l-13.056 13.013334a34.218667 34.218667 0 0 0-3.413333 44.672l3.328 3.84 30.165333 30.165333H247.466667a85.333333 85.333333 0 0 1-82.645334-106.624l19.2-74.538667A213.333333 213.333333 0 0 1 390.613333 554.666667h220.970667z m80.469333 131.029333a60.970667 60.970667 0 1 0 0 121.941333 60.970667 60.970667 0 0 0 0-121.941333zM500.053333 128a192 192 0 1 1 0 384 192 192 0 0 1 0-384z" fill="#50645a" p-id="7842"></path></svg>