<?xml version="1.0" standalone="no"?><!DOCTYPE svg PUBLIC "-//W3C//DTD SVG 1.1//EN" "http://www.w3.org/Graphics/SVG/1.1/DTD/svg11.dtd"><svg t="1722945116613" class="icon" viewBox="0 0 1024 1024" version="1.1" xmlns="http://www.w3.org/2000/svg" p-id="19894" xmlns:xlink="http://www.w3.org/1999/xlink" width="200" height="200"><path d="M567.808 390.656c29.696-38.4 46.592-86.528 46.592-136.704C614.4 131.072 514.56 30.72 391.168 30.72S167.936 131.072 167.936 253.952c0 49.664 16.896 97.28 46.08 136.192C138.24 452.096 59.904 598.528 38.912 675.84c-13.824 50.688-15.872 102.912-5.12 150.016 4.608 22.016 26.624 36.352 48.64 31.232 22.016-4.608 36.352-26.624 31.232-48.64-7.168-33.792-5.632-73.216 4.608-111.104 23.552-86.016 104.448-210.944 150.016-245.76 37.376 20.48 79.36 31.232 122.88 31.232 43.008 0 84.992-10.752 122.368-31.232 46.08 37.376 134.656 175.616 152.576 235.008 18.944 62.976 10.752 131.584-21.504 175.104-20.992 28.16-49.664 42.496-84.992 42.496H222.72c-22.528 0-40.96 18.432-40.96 40.96s18.432 40.96 40.96 40.96h336.896c60.928 0 114.688-27.136 151.04-75.776 47.616-64.512 60.928-159.232 34.304-247.808-15.872-51.2-100.864-206.848-177.152-271.872zM391.168 112.64C468.992 112.64 532.48 176.128 532.48 253.952c0 46.592-23.04 90.112-61.44 116.736-23.552 15.872-51.2 24.576-79.872 24.576s-56.32-8.704-79.872-24.576c-38.4-26.112-61.44-70.144-61.44-116.736C249.856 176.128 313.344 112.64 391.168 112.64zM928.768 529.92c-26.624-55.296-62.976-101.888-102.4-132.608 33.28-39.424 52.224-90.112 52.224-143.36C878.592 131.072 778.24 30.72 655.36 30.72c-22.528 0-40.96 18.432-40.96 40.96s18.432 40.96 40.96 40.96c77.824 0 141.312 63.488 141.312 141.312 0 43.52-19.968 84.48-53.76 111.104-11.776 4.096-21.504 12.8-25.6 25.6-7.168 21.504 4.096 44.544 25.6 52.224 31.744 10.752 78.848 53.248 112.64 122.88 28.16 58.368 66.56 180.736 9.216 339.968-7.68 21.504 3.072 44.544 24.576 52.224 4.608 1.536 9.216 2.56 13.824 2.56 16.896 0 32.256-10.24 38.4-27.136 67.584-187.904 20.992-333.312-12.8-403.456z" fill="#50645a" p-id="19895"></path></svg>