<?xml version="1.0" standalone="no"?><!DOCTYPE svg PUBLIC "-//W3C//DTD SVG 1.1//EN" "http://www.w3.org/Graphics/SVG/1.1/DTD/svg11.dtd"><svg t="1721626990369" class="icon" viewBox="0 0 1024 1024" version="1.1" xmlns="http://www.w3.org/2000/svg" p-id="3106" xmlns:xlink="http://www.w3.org/1999/xlink" width="200" height="200"><path d="M416.448128 1022.978044c-194.171657 0-415.936128-20.439122-415.936128-113.437126v-66.427146C0.512 756.247505 133.366291 677.556886 278.484056 647.92016c23.50499-12.263473 37.812375-37.812375 34.746507-64.383234-28.61477-33.724551-48.031936-73.580838-57.229541-116.502994-10.219561-4.087824-19.417166-11.241517-26.570858-18.395209-19.417166-28.61477-28.61477-63.361277-26.570859-98.107785 4.087824-35.768463 12.263473-23.50499 14.307386-28.61477C190.595832 245.269461 198.771481 161.469062 239.649725 91.976048 314.252519-40.878244 473.677669-1.021956 498.204615 48.031936c153.293413-28.61477 147.161677 209.500998 126.722555 272.862276 0 0 14.307385 0 10.219561 60.295409-4.087824 37.812375-22.483034 72.558882-52.119761 97.085828-10.219561 38.834331-28.61477 74.602794-54.163673 106.283433-5.10978 9.197605-8.175649 20.439122-6.131736 31.680639-30.658683 48.031936-45.988024 103.217565-45.988024 159.42515 0 92.998004 42.922156 180.886228 116.502994 238.115768-56.207585 4.087824-116.502994 10.219561-177.820359 10.219561h1.021956z m0 0" fill="#ffffff" p-id="3107"></path><path d="M588.13675 804.279441c0-23.50499 2.043912-47.00998 6.131737-70.51497l-62.339321-10.219561 136.942115-82.778443 49.053893 62.339321 50.075848 62.339322-80.734531-10.219561c-2.043912 10.219561-3.065868 20.439122-2.043912 31.680639 0 84.822355 72.558882 156.359281 147.161676 183.952095-100.151697 21.461078-238.115768-41.9002-244.247505-166.578842zM956.040942 876.838323L888.59184 919.760479l-52.11976-60.295409-52.119761-60.295409 80.734531 8.175648c1.021956-10.219561 1.021956-20.439122 0-31.680638 0-84.822355-77.668663-156.359281-151.249501-179.864272C812.96709 572.295409 955.018986 632.590818 963.194635 756.247505c2.043912 23.50499 1.021956 47.00998-4.087825 70.51497l62.339322 8.175649-65.40519 41.900199z" fill="#ffffff" p-id="3108"></path></svg>