<?xml version="1.0" standalone="no"?><!DOCTYPE svg PUBLIC "-//W3C//DTD SVG 1.1//EN" "http://www.w3.org/Graphics/SVG/1.1/DTD/svg11.dtd"><svg t="1722944670759" class="icon" viewBox="0 0 1024 1024" version="1.1" xmlns="http://www.w3.org/2000/svg" p-id="5587" xmlns:xlink="http://www.w3.org/1999/xlink" width="200" height="200"><path d="M416.448187 1022.976002c-194.171621 0-415.935188-20.43996-415.935188-113.436778v-66.426871c0-86.86583 132.853741-165.556677 277.971457-195.193618 23.504954-12.262976 37.811926-37.811926 34.746932-64.382875-28.614944-33.724934-48.031906-73.579856-57.229888-116.502772-10.21998-4.087992-19.416962-11.241978-26.569948-18.394964-19.417962-28.614944-28.615944-63.361876-26.571948-98.107809 4.087992-35.76893 12.263976-23.504954 14.307972-28.614944-26.570948-76.64685-18.395964-160.446687 22.482956-229.939551C314.253386-40.87792 473.678075-1.021998 498.205027 48.031906c153.292701-28.614944 147.160713 209.499591 126.721752 272.861467 0 0 14.307972 0 10.21998 60.295882-4.087992 37.811926-22.482956 72.558858-52.119898 97.084811-10.21998 38.834924-28.614944 74.602854-54.163894 106.283792-5.10999 9.196982-8.174984 20.43896-6.130988 31.679938-30.65994 48.031906-45.98791 103.217798-45.98791 159.425689 0 92.997818 42.921916 180.885647 116.502772 238.114535-56.20789 4.087992-116.502772 10.21998-177.819652 10.21998h1.020998z m0 0" p-id="5588" fill="#50645a"></path><path d="M588.136851 804.278429c0-23.505954 2.043996-47.009908 6.130988-70.515862l-62.338878-10.21998 136.941733-82.777838 49.053904 62.339878 50.075902 62.339878-80.734842-10.21998c-2.042996 10.21998-3.064994 20.43896-2.042996 31.679938 0 84.822834 72.557858 156.359695 147.160712 183.951641-100.150804 21.460958-238.115535-41.899918-244.246523-166.578675z m367.903282 72.557858l-67.449869 42.921917-52.118898-60.294883-52.119898-60.294882 80.734842 8.174984c1.021998-10.21998 1.021998-20.43896 0-31.679938 0-84.822834-77.668848-156.359695-151.249704-179.864649 99.129806-23.504954 241.181529 36.789928 249.357513 160.447687 2.043996 23.503954 1.021998 47.009908-4.087992 70.513862l62.339878 8.175984-65.405872 41.899918z" p-id="5589" fill="#50645a"></path></svg>