<?xml version="1.0" standalone="no"?><!DOCTYPE svg PUBLIC "-//W3C//DTD SVG 1.1//EN" "http://www.w3.org/Graphics/SVG/1.1/DTD/svg11.dtd"><svg t="1722945013517" class="icon" viewBox="0 0 1024 1024" version="1.1" xmlns="http://www.w3.org/2000/svg" p-id="17445" xmlns:xlink="http://www.w3.org/1999/xlink" width="200" height="200"><path d="M1012.5 421.3c-17.8-32.8-57.4-69.6-95.7-105.2-22.2-20.6-43.1-40-55.6-55-20.6-24.6-49.8-38.7-80.2-38.7-17.8 0-35.3 5-50.6 14.4l-0.9 0.6-25.3 18.1c-11-6.2-24.9-16.5-37.5-26-32.4-24.2-66-49.3-101.1-49.3h-16.8c-53.5 0-82.2 15.7-105.2 28.3-15.4 8.4-25.6 14-42 14-12 0-26.8-2.9-44.9-8.8-26.5-8.7-35.5-12.8-53.4-20.9-6.5-3-14-6.4-23.7-10.6-12.6-5.5-26-8.4-39.8-8.4-29 0-56.4 12.6-75.3 34.7l-0.4 0.5L23.3 387.2c-31.6 37.5-30.9 93 1.6 129.7l34.2 41.4c4.9 5.9 5.8 14.1 2.3 20.9-7.8 15.6-14.6 33.6-14.6 52.3v9.4c0 24.4 8.8 45.2 26.1 62 12.9 12.6 28.1 20.2 39.3 25.8 3 1.5 6.9 3.5 8.9 4.7 4.1 5.3 7.3 10.4 10.4 15.3 15.5 24.6 30.4 42.5 78.6 45.9 7.2 12.2 16.5 25.3 30 35.7 15 11.5 33.1 18.2 55.4 20.5 20.2 28.7 48.5 43.2 84.4 43.2 14.9 0 29.9-6.5 44.5-15.1 3.7-2.2 7.4-4.5 11.1-6.8 0.1-0.1 0.2-0.1 0.3-0.2 12.6 4.6 31.6 11.6 56 11.6h9.4c66 0 205.6-77.1 230.3-92.2 9.7-5.9 22.1-12.4 35.2-19.2 28.2-14.7 60.2-31.3 86.4-53.3C887.6 690 905 657.1 905 621c0-2.9 0.7-5.7 2-8.2 1.3-2.5 3.2-4.7 5.5-6.4 27.2-19.5 62-51.1 82.4-70.9 30.7-29.7 37.9-76.7 17.6-114.2zM841 621c0 15.2-8.2 29-20.9 41.5L664.5 540.9c-5.5-4.3-12-6.4-18.5-6.4-8.9 0-17.7 4-23.7 11.5-10.2 13.1-7.9 31.9 5.2 42.1l141.2 110.3c-10.6 5.9-21.3 11.5-31.5 16.8-5.3 2.7-10.5 5.4-15.5 8.1l-135-105.5c-5.5-4.3-12-6.4-18.5-6.4-8.9 0-17.7 4-23.7 11.5-10.2 13.1-7.9 31.9 5.2 42.1l115.4 90.1c-13.2 7-27.9 14.4-43.1 21.7l-90-70.2c-5.5-4.3-12-6.4-18.4-6.4-8.9 0-17.8 4-23.7 11.5-10.2 13.1-7.9 31.9 5.2 42.1l64.3 50.3c-24.3 9.2-45.5 15.4-58.2 15.4h-9.4c-12.3 0-22.9-3.6-32.3-7.1 9.9-41.7 4.6-72.5-15.6-91.8-13.8-13.1-28.9-20.3-43.2-23.7 0.7-31.7-12.8-56.8-38.2-71-8.6-4.8-17-7.8-24.8-9.4v-2.3c-0.3-37.2-11.6-63.2-33.6-77.3-18.9-12.1-41-13.8-63.6-5.1-12.4-28.7-34.9-45-63.1-45-19.3 0-36.4 6-50.9 14.1-12.5 7-28.3 4.2-37.5-6.9l-15.3-18.5-0.9-1c-11.8-13.1-12-33-0.6-46.3l0.4-0.5 140.5-178.2c6.7-7.6 16.2-11.9 26.3-11.9 4.8 0 9.6 1 14 3 9.3 4.1 16.5 7.4 22.9 10.3 12.9 5.9 22.3 10.2 36.5 15.4 6.7 2.5 7.5 11.5 1.4 15.2-9.4 5.7-17.7 13.2-23.1 24.1-9.9 19.8-9.3 53.5 11.1 79.6 9.4 12 27.3 27.8 59.2 34.3 26.4 5.5 59.2 3.9 97.3-4.5 101.4-22.5 134.2-8.2 138-6.3 0.2 0.1 0.3 0.2 0.4 0.3L841 598.6V621z" fill="#50645a" p-id="17446"></path></svg>